#!OML:ASF F:\VICON\USERDATA\INSTALL\Justin_Nancy\Justin_Nancy.ASF
:FULLY-SPECIFIED
:DEGREES
252
root -0.122631 17.3553 -4.07395 4.58644 -7.25955 -3.96317
lowerback 6.71407 2.04479 3.88389
upperback 0.854237 3.08088 2.628
thorax -2.82057 1.50015 0.259273
lowerneck -16.8222 -4.66313 -9.2861
upperneck 20.061 -5.62074 7.03667
head 9.58908 -2.55811 3.23706
rclavicle 3.71727e-014 3.97569e-015
rhumerus -24.2439 -4.82531 -81.3018
rradius 34.657
rwrist 4.10259
rhand -15.519 12.4444
rfingers 7.12502
rthumb 10.6642 -17.265
lclavicle 3.71727e-014 3.97569e-015
lhumerus -35.6424 4.44775 85.3011
lradius 30.4944
lwrist -8.11813
lhand -10.7344 26.6129
lfingers 7.12502
lthumb 15.2764 56.0288
rfemur 6.85892 4.49229 29.7102
rtibia 13.9602
rfoot -15.1491 -5.8489
rtoes 1.63346
lfemur -34.5412 -2.5433 -11.9744
ltibia 27.3312
lfoot -0.933882 10.7971
ltoes -10.6115
253
root -0.118529 17.3423 -3.88521 4.67875 -7.35961 -3.71478
lowerback 6.50437 2.11933 3.70916
upperback 0.931231 3.14717 2.46664
thorax -2.62235 1.53823 0.194931
lowerneck -17.0757 -4.65761 -9.08088
upperneck 20.1402 -5.63587 6.97785
head 9.65667 -2.55066 3.17809
rclavicle -1.2921e-015 1.51076e-014
rhumerus -23.8223 -4.77063 -81.4356
rradius 34.724
rwrist 3.53234
rhand -16.1692 12.3049
rfingers 7.12502
rthumb 10.0369 -17.4358
lclavicle -1.2921e-015 1.51076e-014
lhumerus -35.5037 4.60863 85.1028
lradius 30.1155
lwrist -8.82641
lhand -10.171 26.4596
lfingers 7.12502
lthumb 15.819 55.8333
rfemur 7.64516 4.53681 29.2719
rtibia 13.5291
rfoot -15.286 -5.34608
rtoes 2.33318
lfemur -34.5707 -3.57388 -11.6555
ltibia 25.0173
lfoot -0.472458 10.4698
ltoes -10.5605
254
root -0.11317 17.3268 -3.69568 4.80686 -7.41476 -3.54436
lowerback 6.47009 2.14181 3.58265
upperback 0.795185 3.16974 2.3647
thorax -2.74436 1.54761 0.15666
lowerneck -16.8549 -4.63356 -9.03689
upperneck 20.0691 -5.63656 7.00246
head 9.59012 -2.54935 3.18114
rclavicle 3.71727e-014 1.74931e-014
rhumerus -23.6539 -4.68977 -81.493
rradius 34.9901
rwrist 3.74753
rhand -15.3998 10.59
rfingers 7.12502
rthumb 10.7791 -19.1135
lclavicle 3.71727e-014 1.74931e-014
lhumerus -35.899 4.7114 84.914
lradius 29.9107
lwrist -9.16847
lhand -10.1289 25.9439
lfingers 7.12502
lthumb 15.8595 55.3144
rfemur 8.41142 4.63253 28.9497
rtibia 13.1472
rfoot -15.3896 -5.02833
rtoes 2.66968
lfemur -34.6791 -4.6365 -11.2334
ltibia 22.9522
lfoot -0.764736 10.3047
ltoes -9.76884
255
root -0.10668 17.3031 -3.50265 4.9174 -7.60856 -3.65323
lowerback 6.42313 2.20246 3.60822
upperback 0.707387 3.25535 2.42335
thorax -2.80914 1.58856 0.195588
lowerneck -16.6739 -4.614 -9.07663
upperneck 19.9919 -5.60177 6.96484
head 9.52663 -2.54396 3.18052
rclavicle -1.28216e-014 -3.97569e-015
rhumerus -23.3378 -4.6897 -81.3784
rradius 35.2177
rwrist 4.39888
rhand -14.706 10.6143
rfingers 7.12502
rthumb 11.4483 -19.0531
lclavicle -1.28216e-014 -3.97569e-015
lhumerus -36.2347 4.90114 84.8583
lradius 29.6763
lwrist -9.16045
lhand -10.521 25.6791
lfingers 7.12502
lthumb 15.4819 55.0792
rfemur 9.20875 4.82635 28.9227
rtibia 12.717
rfoot -15.3588 -4.76032
rtoes 1.73782
lfemur -34.7996 -5.72453 -10.4304
ltibia 21.2777
lfoot -2.04405 11.0302
ltoes -7.70064
256
root -0.101079 17.2774 -3.30743 4.92433 -7.87712 -3.6807
lowerback 6.39731 2.31252 3.57988
upperback 0.743505 3.39639 2.41486
thorax -2.75549 1.66003 0.192953
lowerneck -16.8668 -4.59412 -9.03929
upperneck 20.0041 -5.57116 6.9812
head 9.56303 -2.52116 3.18232
rclavicle -3.4191e-014 -1.82882e-014
rhumerus -23.0626 -4.63858 -81.3305
rradius 35.3671
rwrist 3.99467
rhand -15.9103 15.0552
rfingers 7.12502
rthumb 10.2867 -14.6733
lclavicle -3.4191e-014 -1.82882e-014
lhumerus -36.2092 5.26777 84.6816
lradius 29.2527
lwrist -9.47263
lhand -10.1647 26.0643
lfingers 7.12502
lthumb 15.825 55.4376
rfemur 10.0913 5.04403 28.7936
rtibia 12.2869
rfoot -15.1863 -4.42964
rtoes 1.02802
lfemur -34.822 -6.94602 -9.68157
ltibia 20.039
lfoot -4.22508 12.4622
ltoes -6.50078
257
root -0.0934659 17.2507 -3.11502 4.87646 -7.85369 -3.80124
lowerback 6.44575 2.34942 3.75642
upperback 0.773075 3.45756 2.37003
thorax -2.73749 1.68866 0.0423914
lowerneck -17.048 -4.54082 -8.83713
upperneck 20.027 -5.54518 7.01516
head 9.59662 -2.48614 3.16272
rclavicle 9.0447e-015 2.62396e-014
rhumerus -22.9286 -4.6593 -81.3918
rradius 35.4744
rwrist 3.09545
rhand -11.122 5.1062
rfingers 7.12502
rthumb 14.9029 -24.3377
lclavicle 9.0447e-015 2.62396e-014
lhumerus -36.2427 5.50107 84.47
lradius 28.8708
lwrist -9.94451
lhand -9.96448 26.2572
lfingers 7.12502
lthumb 16.0179 55.615
rfemur 11.0807 5.0153 28.8306
rtibia 11.8935
rfoot -14.9768 -4.30853
rtoes -1.69757
lfemur -34.85 -7.8789 -9.10461
ltibia 19.189
lfoot -6.64488 13.5909
ltoes -7.8573
258
root -0.0846377 17.2249 -2.92081 4.77175 -7.86309 -3.9995
lowerback 6.52345 2.35546 3.9658
upperback 0.791146 3.48535 2.42615
thorax -2.75269 1.70012 -0.0214165
lowerneck -17.0936 -4.48694 -8.89616
upperneck 20.0504 -5.47202 7.10378
head 9.61108 -2.44613 3.21409
rclavicle -2.75317e-014 -1.82882e-014
rhumerus -22.6794 -4.66615 -81.3205
rradius 35.3783
rwrist 3.04741
rhand -15.6225 10.1738
rfingers 7.12502
rthumb 10.5643 -19.5407
lclavicle -2.75317e-014 -1.82882e-014
lhumerus -36.5093 5.95179 84.3069
lradius 28.7073
lwrist -10.3424
lhand -9.70287 26.4951
lfingers 7.12502
lthumb 16.2698 55.8325
rfemur 12.1179 5.20665 28.989
rtibia 11.6156
rfoot -14.9058 -4.27812
rtoes -5.22486
lfemur -34.7026 -7.80744 -8.9891
ltibia 18.6243
lfoot -8.5539 13.9265
ltoes -10.0406
259
root -0.0756951 17.2076 -2.71991 4.70876 -7.98913 -3.84612
lowerback 6.52777 2.39838 3.77963
upperback 0.746244 3.53117 2.40398
thorax -2.8101 1.72366 0.0537964
lowerneck -16.9701 -4.53816 -8.99319
upperneck 19.9861 -5.52262 7.09557
head 9.57319 -2.48044 3.2206
rclavicle 8.64713e-015 -5.1684e-015
rhumerus -22.4148 -4.72186 -81.2146
rradius 35.231
rwrist 3.35491
rhand -14.8906 0.830337
rfingers 7.12502
rthumb 11.2702 -28.8469
lclavicle 8.64713e-015 -5.1684e-015
lhumerus -36.8443 6.21152 84.2225
lradius 28.6196
lwrist -10.3918
lhand -9.2438 27.6244
lfingers 7.12502
lthumb 16.7117 56.9251
rfemur 12.9597 5.49628 28.7439
rtibia 11.5193
rfoot -14.8936 -4.30444
rtoes -8.67346
lfemur -34.5387 -7.04103 -9.63155
ltibia 18.3293
lfoot -9.1707 13.4243
ltoes -10.4115
260
root -0.0628195 17.1931 -2.51565 4.65318 -7.86887 -3.53338
lowerback 6.45252 2.41934 3.62093
upperback 0.759013 3.53814 2.23145
thorax -2.75309 1.72937 -0.0322723
lowerneck -17.0131 -4.67247 -8.96221
upperneck 20.0233 -5.7308 7.15273
head 9.61396 -2.56744 3.20611
rclavicle 1.59028e-014 2.14687e-014
rhumerus -22.2231 -5.06197 -81.1702
rradius 35.2693
rwrist 3.3529
rhand -13.9583 5.9848
rfingers 7.12502
rthumb 12.1693 -23.6412
lclavicle 1.59028e-014 2.14687e-014
lhumerus -36.7619 6.21736 84.0622
lradius 28.1117
lwrist -10.5977
lhand -9.00756 28.0694
lfingers 7.12502
lthumb 16.9392 57.3508
rfemur 13.6388 5.59359 28.3618
rtibia 11.636
rfoot -14.8413 -4.27181
rtoes -11.0194
lfemur -34.4329 -5.84977 -10.7962
ltibia 18.2866
lfoot -8.50669 11.6956
ltoes -8.79769
261
root -0.0513391 17.178 -2.31092 4.49617 -7.57456 -3.23065
lowerback 6.33239 2.35917 3.40415
upperback 0.831205 3.43114 2.13074
thorax -2.62035 1.68092 0.000812114
lowerneck -16.9722 -4.67072 -8.82116
upperneck 20.0735 -5.75127 7.06069
head 9.61837 -2.57702 3.14836
rclavicle 1.95803e-014 3.97569e-016
rhumerus -22.1631 -5.42623 -81.0333
rradius 35.3142
rwrist 3.55051
rhand -14.8306 10.8186
rfingers 7.12502
rthumb 11.3282 -18.8555
lclavicle 1.95803e-014 3.97569e-016
lhumerus -36.5587 6.61088 83.8449
lradius 27.3367
lwrist -11.1303
lhand -9.06662 27.557
lfingers 7.12502
lthumb 16.8823 56.8431
rfemur 14.2805 5.66111 28.0698
rtibia 12.066
rfoot -14.3961 -3.89832
rtoes -10.2433
lfemur -34.2415 -4.56388 -12.1147
ltibia 18.4611
lfoot -7.46794 9.55998
ltoes -6.31788
262
root -0.0437275 17.1616 -2.10143 4.31728 -7.23191 -3.00015
lowerback 6.19 2.22874 3.11942
upperback 0.853413 3.23151 2.14735
thorax -2.53906 1.58611 0.198956
lowerneck -16.8954 -4.60028 -8.92007
upperneck 20.1762 -5.65511 7.13153
head 9.6368 -2.53406 3.20577
rclavicle 5.81445e-014 2.78299e-015
rhumerus -22.1915 -5.63969 -80.8581
rradius 35.3511
rwrist 3.91445
rhand -15.2423 13.1192
rfingers 7.12502
rthumb 10.931 -16.5763
lclavicle 5.81445e-014 2.78299e-015
lhumerus -36.713 7.19425 83.6676
lradius 26.8323
lwrist -11.5755
lhand -9.71954 26.4337
lfingers 7.12502
lthumb 16.2537 55.7724
rfemur 14.7908 5.61783 27.8673
rtibia 12.8613
rfoot -13.5445 -3.46557
rtoes -8.17592
lfemur -34.0473 -3.2646 -13.401
ltibia 18.9229
lfoot -6.50345 7.7529
ltoes -5.2202
263
root -0.0371635 17.1442 -1.89615 4.1187 -6.76909 -2.88783
lowerback 6.22659 2.1005 2.97836
upperback 0.907064 3.05214 2.17465
thorax -2.51611 1.499 0.319475
lowerneck -17.1041 -4.65449 -9.07055
upperneck 20.2633 -5.70345 7.24624
head 9.71911 -2.55117 3.26331
rclavicle 9.14409e-015 -2.10712e-014
rhumerus -22.2131 -5.89563 -80.7267
rradius 35.6557
rwrist 4.1367
rhand -15.2393 12.6452
rfingers 7.12502
rthumb 10.9339 -17.0501
lclavicle 9.14409e-015 -2.10712e-014
lhumerus -36.6813 7.70805 83.4966
lradius 26.377
lwrist -12.097
lhand -9.72089 26.4173
lfingers 7.12502
lthumb 16.2524 55.7561
rfemur 15.1805 5.54167 27.8646
rtibia 13.8372
rfoot -13.6035 -3.8069
rtoes -12.0526
lfemur -33.9012 -2.39266 -14.3971
ltibia 19.6769
lfoot -5.66859 6.66534
ltoes -5.57649
264
root -0.0318162 17.1279 -1.68861 3.80275 -6.59845 -2.85233
lowerback 6.44872 2.11536 2.94225
upperback 0.954045 3.07724 2.15296
thorax -2.59201 1.51095 0.307229
lowerneck -17.1539 -4.73219 -9.09717
upperneck 20.3827 -5.82635 7.32551
head 9.78532 -2.60032 3.2793
rclavicle -2.55438e-014 -8.34896e-015
rhumerus -22.4155 -6.17205 -80.6368
rradius 35.9436
rwrist 3.92592
rhand -15.2128 11.7894
rfingers 7.12502
rthumb 10.9595 -17.9046
lclavicle -2.55438e-014 -8.34896e-015
lhumerus -36.7249 7.92547 83.3394
lradius 26.164
lwrist -12.1768
lhand -8.98965 27.9273
lfingers 7.12502
lthumb 16.9564 57.2071
rfemur 15.619 5.67056 27.9423
rtibia 14.876
rfoot -13.0963 -3.9605
rtoes -13.9718
lfemur -33.5954 -1.98203 -15.0064
ltibia 20.6779
lfoot -5.03943 6.44211
ltoes -6.74595
265
root -0.0192123 17.1192 -1.45921 3.49201 -6.5834 -2.73224
lowerback 6.45077 2.15634 2.90115
upperback 0.945742 3.1276 2.08825
thorax -2.59953 1.53609 0.259098
lowerneck -16.781 -4.70298 -9.11649
upperneck 20.34 -5.83924 7.44094
head 9.70625 -2.60314 3.32557
rclavicle 2.25621e-014 1.94809e-014
rhumerus -22.8737 -6.46469 -80.4842
rradius 36.0669
rwrist 3.78257
rhand -15.0916 12.0262
rfingers 7.12502
rthumb 11.0764 -17.6615
lclavicle 2.25621e-014 1.94809e-014
lhumerus -36.8697 8.20214 83.116
lradius 25.6322
lwrist -12.1189
lhand -9.09329 27.8028
lfingers 7.12502
lthumb 16.8566 57.0911
rfemur 15.9575 5.70717 27.7488
rtibia 16.1215
rfoot -12.4789 -3.77381
rtoes -14.1526
lfemur -33.2156 -1.88229 -15.5413
ltibia 21.7731
lfoot -4.22773 6.05617
ltoes -6.69617
